<?xml version="1.0" encoding="UTF-8"?>
<svg width="22px" height="22px" viewBox="0 0 22 22" version="1.1" xmlns="http://www.w3.org/2000/svg" xmlns:xlink="http://www.w3.org/1999/xlink">
    <!-- Generator: Sketch 49 (51002) - http://www.bohemiancoding.com/sketch -->
    <title>Group 5</title>
    <desc>Created with Sketch.</desc>
    <defs></defs>
    <g id="Page-1" stroke="none" stroke-width="1" fill="none" fill-rule="evenodd">
        <g id="Start" transform="translate(-318.000000, -35.000000)">
            <g id="Group-5" transform="translate(315.000000, 32.000000)">
                <rect id="Rectangle-path-Copy-2" x="0" y="0" width="28" height="28"></rect>
                <path d="M21,18.6666667 C19.5672618,17.4976667 18.6930685,15.7336667 18.6930685,13.811 L18.6930685,10.5 C18.6930685,7.92633333 16.5879641,5.83333333 13.9994133,5.83333333 C11.4108625,5.83333333 9.30575811,7.92633333 9.30575811,10.5 L9.30575811,13.811 C9.30575811,15.7336667 8.43156483,17.4976667 7,18.6666667 L21,18.6666667 Z M24.5,21 L3.5,21 L3.5,17.8255 L4.298,17.5606667 C5.91383333,17.0205 7,15.5143333 7,13.811 L7,10.5 C7,6.6395 10.1395,3.5 14,3.5 C17.8593333,3.5 21,6.6395 21,10.5 L21,13.811 C21,15.5143333 22.0861667,17.0205 23.702,17.5606667 L24.5,17.8255 L24.5,21 Z M10.5,22.1666667 L18.6666667,22.1666667 C17.8452588,23.5538333 16.3328254,24.5 14.5833333,24.5 C12.8338413,24.5 11.3214078,23.5538333 10.5,22.1666667 Z" id="Fill-3" fill="#909090"></path>
            </g>
        </g>
    </g>
</svg>