<?xml version="1.0" encoding="UTF-8"?>
<svg width="20px" height="24px" viewBox="0 0 20 24" version="1.1" xmlns="http://www.w3.org/2000/svg" xmlns:xlink="http://www.w3.org/1999/xlink">
    <!-- Generator: Sketch 49 (51002) - http://www.bohemiancoding.com/sketch -->
    <title>Group 3 Copy</title>
    <desc>Created with Sketch.</desc>
    <defs></defs>
    <g id="Page-1" stroke="none" stroke-width="1" fill="none" fill-rule="evenodd" opacity="0.5">
        <g id="Start" transform="translate(-176.000000, -577.000000)">
            <g id="Group-3-Copy" transform="translate(172.000000, 575.000000)">
                <rect id="Rectangle-path-Copy" x="0" y="0" width="28" height="28"></rect>
                <path d="M21,22.8354279 L18.0215,21.3081987 C17.6458333,21.1154997 17.199,21.144225 16.8525,21.3824057 L14,23.3333333 L11.1475,21.3824057 C10.9526667,21.2495512 10.7263333,21.1813285 10.5,21.1813285 C10.3226667,21.1813285 10.1418333,21.2232196 9.9785,21.3081987 L7,22.8354279 L7,5.165769 L9.9785,6.69060443 C10.3518333,6.88330341 10.7986667,6.8545781 11.1475,6.61639737 L14,4.66666667 L16.8525,6.61759425 C17.2001667,6.85577499 17.647,6.8845003 18.0215,6.69180132 L21,5.165769 L21,22.8354279 Z M22.7791667,2.50832677 C23.1233333,2.72065214 23.3333333,3.0951381 23.3333333,3.49995625 L23.3333333,24.4991688 C23.3333333,24.9051536 23.1233333,25.2784729 22.7791667,25.4931315 C22.435,25.7042903 22.0068333,25.7241228 21.644,25.5432963 L17.5816667,23.5122058 L14.6475,25.469799 C14.2543333,25.7322892 13.7445,25.7322892 13.3525,25.469799 L10.4148333,23.5122058 L6.35483333,25.5432963 C6.1915,25.6249599 6.01066667,25.6657917 5.83333333,25.6657917 C5.61983333,25.6657917 5.4075,25.6074606 5.22083333,25.4931315 C4.87666667,25.2784729 4.66666667,24.9051536 4.66666667,24.4991688 L4.66666667,3.49995625 C4.66666667,3.0951381 4.87666667,2.72065214 5.22083333,2.50832677 C5.565,2.29483478 5.99433333,2.27616881 6.356,2.45582874 L10.416,4.48808586 L13.3525,2.52932598 C13.7445,2.26800245 14.2543333,2.26800245 14.6475,2.52932598 L17.584,4.48808586 L21.644,2.45582874 C22.0068333,2.27616881 22.435,2.29483478 22.7791667,2.50832677 Z M15.1666667,8.16666667 L12.8333333,8.16666667 L12.8333333,9.39166667 C11.5033333,9.6635 10.5,10.8406667 10.5,12.25 C10.5,13.8576667 11.8078333,15.1666667 13.4166667,15.1666667 L14.5833333,15.1666667 C14.9041667,15.1666667 15.1666667,15.4291667 15.1666667,15.75 C15.1666667,16.0708333 14.9041667,16.3333333 14.5833333,16.3333333 L10.5,16.3333333 L10.5,18.6666667 L12.8333333,18.6666667 L12.8333333,19.8333333 L15.1666667,19.8333333 L15.1666667,18.6083333 C16.4978333,18.3376667 17.5,17.1593333 17.5,15.75 C17.5,14.1423333 16.1921667,12.8333333 14.5833333,12.8333333 L13.4166667,12.8333333 C13.0958333,12.8333333 12.8333333,12.572 12.8333333,12.25 C12.8333333,11.928 13.0958333,11.6666667 13.4166667,11.6666667 L17.5,11.6666667 L17.5,9.33333333 L15.1666667,9.33333333 L15.1666667,8.16666667 Z" id="Combined-Shape" fill="#373D47"></path>
            </g>
        </g>
    </g>
</svg>