<?xml version="1.0" encoding="UTF-8"?>
<svg width="20px" height="24px" viewBox="0 0 20 24" version="1.1" xmlns="http://www.w3.org/2000/svg" xmlns:xlink="http://www.w3.org/1999/xlink">
    <!-- Generator: Sketch 49 (51002) - http://www.bohemiancoding.com/sketch -->
    <title>Group 2 Copy</title>
    <desc>Created with Sketch.</desc>
    <defs></defs>
    <g id="Page-1" stroke="none" stroke-width="1" fill="none" fill-rule="evenodd" opacity="0.5">
        <g id="Start" transform="translate(-301.000000, -577.000000)">
            <g id="Group-2-Copy" transform="translate(297.000000, 575.000000)">
                <polygon id="Clip-4" points="0 28 28 28 28 0 0 0"></polygon>
                <path d="M21,23.3333333 L7,23.3333333 L7,4.66666667 L16.3325556,4.66666667 L16.3325556,9.33333333 L20.9988334,9.33333333 L21,23.3333333 Z M17.983,2.33333333 L23.3333333,7.68366667 L23.3333333,23.3333333 C23.3333333,24.6213333 22.288,25.6666667 21,25.6666667 L7,25.6666667 C5.71316667,25.6666667 4.66666667,24.6213333 4.66666667,23.3333333 L4.66666667,4.66666667 C4.66666667,3.381 5.71316667,2.33333333 7,2.33333333 L17.983,2.33333333 Z M9.33333333,15.1666667 L15.1666667,15.1666667 L15.1666667,12.8333333 L9.33333333,12.8333333 L9.33333333,15.1666667 Z M16.3333333,15.1666667 L18.6666667,15.1666667 L18.6666667,12.8333333 L16.3333333,12.8333333 L16.3333333,15.1666667 Z M16.3333333,19.8333333 L18.6666667,19.8333333 L18.6666667,17.5 L16.3333333,17.5 L16.3333333,19.8333333 Z M9.33333333,19.8333333 L15.1666667,19.8333333 L15.1666667,17.5 L9.33333333,17.5 L9.33333333,19.8333333 Z" id="Combined-Shape" fill="#373D47"></path>
            </g>
        </g>
    </g>
</svg>