<?xml version="1.0" encoding="UTF-8"?>
<svg width="24px" height="24px" viewBox="0 0 24 24" version="1.1" xmlns="http://www.w3.org/2000/svg" xmlns:xlink="http://www.w3.org/1999/xlink">
    <!-- Generator: Sketch 49 (51002) - http://www.bohemiancoding.com/sketch -->
    <title>walet icon</title>
    <desc>Created with Sketch.</desc>
    <defs></defs>
    <g id="Page-1" stroke="none" stroke-width="1" fill="none" fill-rule="evenodd" opacity="0.5">
        <g id="Start" transform="translate(-51.000000, -577.000000)">
            <g id="walet-icon" transform="translate(49.000000, 575.000000)">
                <rect id="Rectangle-path" x="0" y="0" width="28" height="28"></rect>
                <path d="M24.5,11.6664279 L23.3333333,11.6664279 L23.3333333,9.33305472 C23.3333333,8.04619944 22.2868333,6.99968159 21,6.99968159 L20.5543333,6.99968159 L18.543,2.97811299 C18.2723333,2.43560373 17.6295,2.19176624 17.066,2.41693675 L5.60816667,6.99968159 L4.66666667,6.99968159 C3.37983333,6.99968159 2.33333333,8.04619944 2.33333333,9.33305472 L2.33333333,23.3332935 C2.33333333,24.6201488 3.37983333,25.6666667 4.66666667,25.6666667 L21,25.6666667 C22.2868333,25.6666667 23.3333333,24.6201488 23.3333333,23.3332935 L23.3333333,20.9999204 L24.5,20.9999204 C25.144,20.9999204 25.6666667,20.4772448 25.6666667,19.8332338 L25.6666667,12.8331144 C25.6666667,12.1891034 25.144,11.6664279 24.5,11.6664279 Z M16.5275904,4.66666667 L17.5,7 L11.6666667,7 L16.5275904,4.66666667 Z M20.9965,23.3333333 L4.66666667,23.3333333 L4.66666667,9.33333333 L21,9.33333333 L21,11.6666667 L17.5,11.6666667 C17.1908333,11.6666667 16.8933333,11.7903333 16.6751667,12.0096667 L13.1751667,15.5096667 C12.719,15.9646667 12.719,16.702 13.1751667,17.1593333 L16.6751667,20.6593333 C16.8933333,20.8763333 17.1908333,21 17.5,21 L20.9976667,21 L20.9965,23.3333333 Z M23.3333333,18.6666667 L17.6466748,18.6666667 L15.1666667,16.3333333 L17.6466748,14 L23.3333333,14 L23.3333333,18.6666667 Z M18.6666667,17.5 C19.3109989,17.5 19.8333333,16.9776655 19.8333333,16.3333333 C19.8333333,15.6890011 19.3109989,15.1666667 18.6666667,15.1666667 C18.0223345,15.1666667 17.5,15.6890011 17.5,16.3333333 C17.5,16.9776655 18.0223345,17.5 18.6666667,17.5 Z" id="Combined-Shape" fill="#373D47" fill-rule="nonzero"></path>
            </g>
        </g>
    </g>
</svg>